<svg xmlns="http://www.w3.org/2000/svg" viewBox="0 0 24 24" fill="currentColor">
  <path d="M8.69 3.46C5.4 3.46 2.73 5.78 2.73 8.63c0 1.58.8 3 2.05 3.93l-.5 1.5 1.77-.95c.83.3 1.74.46 2.64.46.3 0 .6-.02.9-.05a5.5 5.5 0 0 1-.12-1.04c0-2.89 2.17-5.24 4.85-5.24.22 0 .43.02.64.05A5.02 5.02 0 0 0 8.69 3.46ZM6.4 6.95c.34 0 .62.28.62.62s-.28.62-.62.62a.62.62 0 0 1-.62-.62c0-.34.28-.62.62-.62Zm4.59.62a.62.62 0 0 1-.62-.62c0-.34.28-.62.62-.62s.62.28.62.62c0 .35-.28.62-.62.62Z"/>
  <path d="M15.33 8.43c-2.73 0-4.95 2.4-4.95 5.36s2.22 5.37 4.95 5.37c.84 0 1.7-.22 2.48-.65l1.58.85-.43-1.36c1.09-1 1.72-2.28 1.72-4.2 0-2.97-2.22-5.37-4.95-5.37Zm-2.15 3.5c.25 0 .45.2.45.46 0 .25-.2.46-.45.46a.46.46 0 0 1-.46-.46c0-.25.2-.46.46-.46Zm4.3 0c.25 0 .45.2.45.46 0 .25-.2.46-.45.46a.46.46 0 0 1-.46-.46c0-.25.2-.46.46-.46Z"/>
</svg>